<svg xmlns="http://www.w3.org/2000/svg" width="320" height="100" viewBox="0 0 219.971 65" role="img"
              aria-label="Treasury Direct logo with Access Portal">
              <!-- original logo paths (kept as provided) -->
              <path
                d="M172.181,70.3v9.141c0,2.644-.672,4.972-3.809,4.972s-3.822-2.328-3.822-4.972V70.3h-3.172v9.5c0,4.512,2.114,7.58,6.994,7.58s6.986-3.068,6.986-7.58V70.3Zm31.182-.046-4.593,9.172-5.406-9.065H189.7l7.357,12.243-6.98,13.359h3.564l13.25-25.709Zm-20.309,2.8h-.1V70.376h-3.176V86.888h3.176V78.773c0-2.684.423-5.857,3.84-5.857a2.752,2.752,0,0,1,1,.107l1.161-2.719a4.206,4.206,0,0,0-1.387-.421,4.742,4.742,0,0,0-4.512,3.175m-52.939,5.5c0-3.064,1.944-5.924,5.221-5.924,3.42,0,5.362,2.716,5.362,5.924,0,3.248-1.907,6-5.362,6-3.35,0-5.221-2.892-5.221-6m-3.172-.11c0,4.734,2.853,8.932,7.9,8.932a6.759,6.759,0,0,0,5.6-3.141h.074v2.58h3.174V70.3h-3.174v2.749h-.074a6.734,6.734,0,0,0-5.709-3.241c-4.794,0-7.792,4.125-7.792,8.634m-25.854-5.459h-.108V70.305H97.808V86.817h3.173V78.7c0-2.68.426-5.853,3.846-5.853a2.781,2.781,0,0,1,1.938.665l1.447-2.887a4.929,4.929,0,0,0-2.614-.814,4.74,4.74,0,0,0-4.509,3.178m15.774-.428a4.454,4.454,0,0,1,4.547,4.127h-9.234a4.722,4.722,0,0,1,4.687-4.127M108.82,78.7c0,4.864,3.072,8.677,8.117,8.677a8.6,8.6,0,0,0,7.651-4.514l-2.681-1.515c-1.2,1.971-2.5,3.209-4.938,3.209-3.032,0-4.938-2.647-4.971-5.472h12.59V78.6c0-4.9-2.468-8.787-7.725-8.787-5.321,0-8.043,3.813-8.043,8.892m38.819-4.094c0,2.257,1.34,3.173,3.171,4.166l3.1,1.652a2.011,2.011,0,0,1,1.16,1.8,2.365,2.365,0,0,1-2.5,2.331c-1.522,0-2.328-.89-3-2.121l-2.713,1.231a6.077,6.077,0,0,0,5.713,3.71,5.541,5.541,0,0,0,5.676-5.47c0-2.615-1.871-3.812-3.81-4.691s-3.84-1.518-3.84-2.962a1.713,1.713,0,0,1,1.727-1.626,2.435,2.435,0,0,1,2.113,1.446l2.573-1.371a4.9,4.9,0,0,0-4.514-2.9,4.812,4.812,0,0,0-4.86,4.8M81.991,60.215v3.039H88.3V86.813h3.314V63.254h6.314V60.215Z"
                transform="translate(-81.991 -60.215)" fill="#54a800" />
              <path
                d="M299.4,83.912h.609c.248,0,.561.043.561.283,0,.361-.5.308-.788.308H299.4Zm-.324-.318v2.284h.324V84.824h.382l.691,1.054h.38l-.687-1.054c.4-.01.721-.178.721-.629,0-.494-.4-.6-.816-.6Zm-.995,1.157a1.779,1.779,0,1,1,1.78,1.768,1.786,1.786,0,0,1-1.78-1.768m-.319,0a2.1,2.1,0,1,0,2.1-2.09,2.081,2.081,0,0,0-2.1,2.09m-65.694-14.9.116,17.23,4.917-.032-.118-17.232Zm18.835-.69a4.916,4.916,0,0,0-4.266,2.379h-.069l-.013-1.785-4.91.032.119,17.229,4.906-.032-.05-7.758c-.019-2.663.313-5.683,3.713-5.707a3.5,3.5,0,0,1,2.04.615l.566-4.563a5.619,5.619,0,0,0-1.979-.41H250.9m11.724,3.369c1.89-.016,3.026,1.694,3.285,3.451l-6.557.043c.223-1.789,1.308-3.48,3.272-3.494m-.3-3.446c-5.582.044-8.325,4.169-8.3,9.4s3.334,9,8.666,8.963a7.915,7.915,0,0,0,7.783-5.422l-4.528-.708a3.586,3.586,0,0,1-3.281,2.369c-2.558.027-3.423-2.428-3.435-4.611L270.563,79v-.6c-.043-5.172-2.57-9.319-8.172-9.318h-.066m19.7-.124a8.915,8.915,0,0,0-8.884,9.3c.032,4.943,3.677,9.1,8.758,9.059a8.6,8.6,0,0,0,4.238-1.08l-.028-4.736a4.687,4.687,0,0,1-3.431,1.67c-2.8.024-4.538-2.213-4.558-4.922-.013-2.525,1.549-5.133,4.315-5.151a4.833,4.833,0,0,1,3.628,1.662l-.032-4.738a7.671,7.671,0,0,0-3.928-1.064h-.078m9.075-5.319.036,5.822-1.684.012.026,4.14,1.689-.011.089,13.1,4.912-.034-.09-13.092,3.011-.017-.031-4.146-3.009.024-.041-5.827Zm-77.245,1.24h.842c5.853,0,8.806,2.986,8.806,8.739,0,5.228-2.456,8.739-8.806,8.739h-.842Zm-5.157-4.5V86.848h7.331c7.544,0,12.806-5.755,12.806-13.195,0-7.546-5.125-13.272-12.772-13.272Z"
                transform="translate(-81.991 -60.215)" fill="#36c" />
              <path
                d="M234.4,60.415a2.912,2.912,0,0,0,.043,5.824,2.894,2.894,0,0,0,2.885-2.931,2.928,2.928,0,0,0-2.908-2.893h-.02"
                transform="translate(-81.991 -60.215)" fill="#f60" />

              <!-- Access Portal: increased size and moved down 5px to create a clear gap -->
              <text x="109.9855" y="48" font-family="'Montserrat', 'Helvetica Neue', Arial, sans-serif" font-size="16"
                font-weight="600" fill="#666666" text-anchor="middle" letter-spacing="1">
                Access Portal
              </text>
            </svg>